HIERARCHY
ROOT Hips
{
	OFFSET 0.00 0.00 0.00
	CHANNELS 6 Xposition Yposition Zposition Zrotation Xrotation Yrotation
		JOINT Spine
		{
			OFFSET 0.00 10.00 0.00
			CHANNELS 3 Zrotation Xrotation Yrotation
			JOINT Spine1
			{
				OFFSET 0.00 10.00 0.00
				CHANNELS 3 Zrotation Xrotation Yrotation
				JOINT Spine2
				{
					OFFSET 0.00 10.00 0.00
					CHANNELS 3 Zrotation Xrotation Yrotation
					JOINT Neck
					{
						OFFSET 0.00 10.00 0.00
						CHANNELS 3 Zrotation Xrotation Yrotation
						JOINT Head
						{
							OFFSET 0.00 10.00 0.00
							CHANNELS 3 Zrotation Xrotation Yrotation
						End Site
						{
							OFFSET 0.00 0.00 0.00
						}
					}
					End Site
					{
						OFFSET 0.00 0.00 0.00
					}
				}
					JOINT LeftArm
					{
						OFFSET 10.00 0.00 0.00
						CHANNELS 3 Zrotation Xrotation Yrotation
						JOINT LeftForeArm
						{
							OFFSET 20.00 0.00 0.00
							CHANNELS 3 Zrotation Xrotation Yrotation
							JOINT LeftHand
							{
								OFFSET 20.00 0.00 0.00
								CHANNELS 3 Zrotation Xrotation Yrotation
							End Site
							{
								OFFSET 0.00 0.00 0.00
							}
						}
						End Site
						{
							OFFSET 0.00 0.00 0.00
						}
					}
					End Site
					{
						OFFSET 0.00 0.00 0.00
					}
				}
					JOINT RightArm
					{
						OFFSET -10.00 0.00 0.00
						CHANNELS 3 Zrotation Xrotation Yrotation
						JOINT RightForeArm
						{
							OFFSET -20.00 0.00 0.00
							CHANNELS 3 Zrotation Xrotation Yrotation
							JOINT RightHand
							{
								OFFSET -20.00 0.00 0.00
								CHANNELS 3 Zrotation Xrotation Yrotation
							End Site
							{
								OFFSET 0.00 0.00 0.00
							}
						}
						End Site
						{
							OFFSET 0.00 0.00 0.00
						}
					}
					End Site
					{
						OFFSET 0.00 0.00 0.00
					}
				}
				End Site
				{
					OFFSET 0.00 0.00 0.00
				}
			}
			End Site
			{
				OFFSET 0.00 0.00 0.00
			}
		}
		End Site
		{
			OFFSET 0.00 0.00 0.00
		}
	}
		JOINT LeftUpLeg
		{
			OFFSET 5.00 -10.00 0.00
			CHANNELS 3 Zrotation Xrotation Yrotation
			JOINT LeftLeg
			{
				OFFSET 0.00 -20.00 0.00
				CHANNELS 3 Zrotation Xrotation Yrotation
				JOINT LeftFoot
				{
					OFFSET 0.00 -20.00 0.00
					CHANNELS 3 Zrotation Xrotation Yrotation
					JOINT LeftToeBase
					{
						OFFSET 0.00 -5.00 5.00
						CHANNELS 3 Zrotation Xrotation Yrotation
					End Site
					{
						OFFSET 0.00 0.00 0.00
					}
				}
				End Site
				{
					OFFSET 0.00 0.00 0.00
				}
			}
			End Site
			{
				OFFSET 0.00 0.00 0.00
			}
		}
		End Site
		{
			OFFSET 0.00 0.00 0.00
		}
	}
		JOINT RightUpLeg
		{
			OFFSET -5.00 -10.00 0.00
			CHANNELS 3 Zrotation Xrotation Yrotation
			JOINT RightLeg
			{
				OFFSET 0.00 -20.00 0.00
				CHANNELS 3 Zrotation Xrotation Yrotation
				JOINT RightFoot
				{
					OFFSET 0.00 -20.00 0.00
					CHANNELS 3 Zrotation Xrotation Yrotation
					JOINT RightToeBase
					{
						OFFSET 0.00 -5.00 5.00
						CHANNELS 3 Zrotation Xrotation Yrotation
					End Site
					{
						OFFSET 0.00 0.00 0.00
					}
				}
				End Site
				{
					OFFSET 0.00 0.00 0.00
				}
			}
			End Site
			{
				OFFSET 0.00 0.00 0.00
			}
		}
		End Site
		{
			OFFSET 0.00 0.00 0.00
		}
	}
	End Site
	{
		OFFSET 0.00 0.00 0.00
	}
}
MOTION
Frames: 11
Frame Time: 0.034483
11.3058 -1.7656 -1.6966 170.3667 75.0735 -7.4089 -10.4319 0.8715 -0.0796 -10.4319 0.8715 -0.0796 67.4233 -26.1141 -17.5921 36.6578 29.0629 9.8157 -61.0686 -54.5352 33.8210 -92.6465 -3.2579 -3.1109 -88.2614 -1.8997 -1.9582 -111.1210 -36.2503 -25.3023 84.3839 -4.0153 4.4292 44.4134 -14.4058 34.4032 40.3256 -33.6183 78.8890 12.0360 -64.3854 -7.5942 -37.0554 70.2621 -26.5367 -48.5160 72.9741 -36.8660 -167.7732 -171.9438 -66.6480 -31.5688 -79.4716 26.4471 34.4799 26.8210 8.4629 62.3497 -38.6940 -23.9865 26.1908 -34.7646 73.2324
11.3019 -1.7740 -1.7167 170.3201 75.6661 -7.5246 -11.0459 2.5344 -0.2451 -11.0459 2.5344 -0.2451 69.2932 -22.8461 -15.8977 37.5835 28.0630 9.7211 -64.5903 -51.1760 33.6787 -92.8666 -2.7627 -2.6279 -89.2532 0.3676 0.3725 -114.0647 -36.4707 -24.1247 85.1693 -4.2757 4.6519 44.2930 -13.4151 32.2342 24.2983 -20.3837 79.7313 12.3790 -63.5825 -7.6911 -34.8672 72.4371 -25.9042 -45.3688 76.4448 -36.4420 -174.3800 -176.6156 -62.0875 -32.4056 -78.3668 26.6501 35.1234 30.8252 9.9728 74.6315 -26.9115 -20.6712 90.4236 -96.8200 83.6009
11.2272 -1.7756 -1.7280 170.2546 76.2121 -7.6501 -11.4185 3.8749 -0.3875 -11.4185 3.8749 -0.3875 69.3348 -22.1660 -15.4300 38.1773 27.2183 9.5780 -67.0881 -48.9076 33.5558 -92.8986 -2.9198 -2.7758 -89.9736 2.1033 2.1042 -116.0240 -32.5921 -20.6956 85.6966 -4.7248 5.0932 44.5339 -13.1981 31.5541 19.5850 -16.2537 79.2062 12.5190 -61.7582 -7.5054 -32.6846 75.4119 -25.5436 -42.9721 79.0041 -35.9572 -175.6418 -177.5357 -58.9560 -31.6687 -78.2054 25.9614 35.0989 33.2102 10.7751 78.9220 -22.5508 -18.6409 123.8269 -128.8787 83.7358
11.1891 -1.7816 -1.7335 170.1980 76.3407 -7.7124 -11.8014 4.0811 -0.4220 -11.8014 4.0811 -0.4220 69.1471 -22.3701 -15.5201 38.5354 26.8205 9.5285 -67.7973 -48.5351 33.7067 -92.5934 -3.0206 -2.8869 -90.2874 1.7927 1.7838 -116.2361 -29.6649 -18.7074 85.8384 -5.0275 5.4060 44.8953 -13.6097 32.2207 25.9707 -21.5474 79.0574 12.5697 -60.5042 -7.3505 -31.0736 77.8865 -25.3256 -41.6860 80.7775 -35.8935 -177.9496 -178.8771 -57.4096 -31.1529 -78.2116 25.5342 35.3940 34.1626 11.1998 81.0267 -20.9833 -17.9839 145.1898 -148.6681 83.6332
11.1530 -1.7975 -1.7202 170.0859 75.4322 -7.6746 -12.1383 4.6967 -0.4996 -12.1383 4.6967 -0.4996 68.5298 -23.1243 -15.8688 38.9319 26.4013 9.4786 -68.5996 -47.6737 33.5443 -92.3160 -2.7265 -2.6185 -89.1677 2.9096 2.9521 -114.5341 -28.3412 -18.4377 85.3840 -4.6807 5.0734 45.3232 -13.5375 31.7379 31.6166 -26.1685 78.7647 12.2665 -58.9820 -6.9556 -28.0409 81.7727 -24.3991 -38.5579 84.4099 -35.2000 -178.3482 -179.1284 -55.6342 -31.2776 -78.1137 25.5949 36.1582 33.6511 11.2758 80.3833 -21.7770 -18.4609 155.7214 -158.1226 83.8805
11.1308 -1.7980 -1.5085 170.0597 67.3064 -6.6269 -12.1145 5.1788 -0.5499 -12.1145 5.1788 -0.5499 67.6527 -24.6387 -16.6516 39.0035 26.1291 9.3964 -67.7280 -48.4191 33.5793 -92.1405 -3.4405 -3.3144 -87.7614 3.1957 3.3230 -111.7226 -27.0161 -18.5025 85.3331 -4.4460 4.8233 45.2577 -13.5289 31.7671 35.4217 -28.7182 77.4324 9.5445 -60.9121 -5.6208 -25.6232 82.2107 -22.4454 -40.1246 82.3816 -35.4485 -178.4310 -179.1630 -56.1513 -34.0198 -76.1739 26.9653 37.3698 31.2589 10.8094 76.9174 -26.7755 -21.4097 153.3769 -155.6656 84.6837
11.1719 -1.7984 -1.4708 170.0896 65.8722 -6.4295 -12.1856 5.6494 -0.6035 -12.1856 5.6494 -0.6035 67.4791 -24.8660 -16.7537 39.0436 26.8901 9.6896 -66.9567 -48.6245 33.2699 -91.5372 -3.2048 -3.1200 -84.1993 3.0201 3.3422 -104.4184 -26.6034 -20.7769 85.1963 -3.8345 4.1700 44.5688 -13.2668 31.6853 29.8021 -24.3484 78.0659 8.1140 -65.9258 -5.2669 -23.8766 79.3513 -19.8950 -40.0321 80.8235 -34.4638 175.8210 177.8760 -53.8692 -35.8423 -74.6738 27.7155 38.1238 30.4201 10.7338 76.9405 -27.5049 -22.0100 135.1476 -139.7431 83.2147
11.2132 -1.8055 -1.4296 170.0860 63.9564 -6.1991 -12.5213 5.6238 -0.6175 -12.5213 5.6238 -0.6175 67.3326 -24.6992 -16.5939 38.7542 27.4752 9.8286 -66.2493 -49.2003 33.2662 -90.2730 -2.5452 -2.5331 -79.2210 2.9918 3.6148 -92.5208 -20.0981 -19.2492 84.8563 -3.7930 4.1495 44.2416 -13.1549 31.6737 29.4856 -23.9336 77.7000 7.1147 -67.1229 -4.7235 -22.9989 79.1880 -19.1029 -40.0742 80.4489 -34.2864 175.3111 177.5999 -54.1938 -37.9698 -72.5838 28.3573 39.5514 28.9964 10.6233 76.2858 -28.6585 -22.6860 120.9783 -125.7784 84.2583
11.3618 -1.8377 -1.4705 170.0502 64.7719 -6.3204 -13.1671 5.7954 -0.6694 -13.1671 5.7954 -0.6694 67.2922 -23.8312 -15.9892 38.9105 27.7300 9.9659 -67.3503 -47.6834 32.8140 -90.0819 -1.5802 -1.5780 -77.1781 7.2008 9.0171 -84.7729 -13.9283 -15.2457 84.1469 -3.4589 3.8314 43.7529 -12.6810 30.9378 22.5266 -18.2198 77.6794 7.5938 -69.0082 -5.2239 -26.2896 75.1967 -20.3894 -41.9006 79.1311 -35.1095 174.7930 176.9742 -60.2989 -38.4686 -72.1111 28.5050 39.8182 28.9561 10.6851 76.8788 -28.0715 -22.4458 110.0411 -115.3879 84.2107
11.3705 -1.8606 -1.5349 169.9527 66.9784 -6.6571 -14.3963 6.3389 -0.8014 -14.3963 6.3389 -0.8014 66.2344 -23.9478 -15.7531 38.1005 27.6693 9.7212 -67.6971 -47.8512 33.1416 -88.8431 -0.4449 -0.4540 -76.1465 7.5757 9.6620 -80.1218 -13.6983 -16.2579 83.3362 -4.0650 4.5671 40.8182 -11.6701 30.7162 -12.9808 10.4043 77.3393 7.7858 -69.7031 -5.4260 -26.8588 74.6135 -20.6236 -41.3519 79.4070 -34.7971 174.0139 176.5603 -59.7347 -36.2896 -74.9323 28.1973 38.1977 29.3778 10.3728 75.0072 -28.8875 -22.3626 80.3358 -85.9134 84.3887
11.4003 -1.9502 -1.6302 169.5614 68.3803 -7.1020 -15.6070 6.3067 -0.8652 -15.6070 6.3067 -0.8652 65.3470 -23.9462 -15.4901 37.5556 27.7348 9.5958 -67.0388 -48.8863 33.5106 -87.8474 -0.6572 -0.6824 -75.4044 7.7536 10.0209 -75.7144 -13.4278 -17.2240 82.3435 -4.2013 4.8032 37.9574 -11.0031 31.2911 -31.2064 24.2273 75.0885 8.6571 -69.5420 -6.0163 -28.4451 73.8231 -21.5581 -42.8007 77.7890 -35.0901 173.3563 176.0812 -61.0324 -33.9152 -78.8203 28.1324 34.8335 29.9968 9.6085 69.6011 -31.9353 -22.4957 45.1615 -50.9826 82.1912
